<mxfile host="65bd71144e">
    <diagram id="cdss-usecase" name="CDSS系统用例图">
        <mxGraphModel dx="383" dy="624" grid="1" gridSize="10" guides="1" tooltips="1" connect="1" arrows="1" fold="1" page="1" pageScale="1" pageWidth="827" pageHeight="1169" math="0" shadow="0">
            <root>
                <mxCell id="0"/>
                <mxCell id="1" parent="0"/>
                <mxCell id="actor1" value="医生" style="shape=umlActor;verticalLabelPosition=bottom;verticalAlign=top;html=1;" parent="1" vertex="1">
                    <mxGeometry x="40" y="300" width="30" height="60" as="geometry"/>
                </mxCell>
                <mxCell id="actor2" value="护士" style="shape=umlActor;verticalLabelPosition=bottom;verticalAlign=top;html=1;" parent="1" vertex="1">
                    <mxGeometry x="40" y="500" width="30" height="60" as="geometry"/>
                </mxCell>
                <mxCell id="boundary" value="CDSS系统" style="shape=umlFrame;whiteSpace=wrap;html=1;width=120;height=30;" parent="1" vertex="1">
                    <mxGeometry x="120" y="40" width="600" height="700" as="geometry"/>
                </mxCell>
                <mxCell id="uc1" value="医嘱质控" style="ellipse;whiteSpace=wrap;html=1;" parent="1" vertex="1">
                    <mxGeometry x="200" y="100" width="140" height="70" as="geometry"/>
                </mxCell>
                <mxCell id="uc1_1" value="强制通过医嘱" style="ellipse;whiteSpace=wrap;html=1;" parent="1" vertex="1">
                    <mxGeometry x="400" y="100" width="140" height="70" as="geometry"/>
                </mxCell>
                <mxCell id="uc2" value="疑似诊断推荐" style="ellipse;whiteSpace=wrap;html=1;" parent="1" vertex="1">
                    <mxGeometry x="200" y="200" width="140" height="70" as="geometry"/>
                </mxCell>
                <mxCell id="uc2_1" value="查看诊断详情" style="ellipse;whiteSpace=wrap;html=1;" parent="1" vertex="1">
                    <mxGeometry x="400" y="200" width="140" height="70" as="geometry"/>
                </mxCell>
                <mxCell id="uc3" value="治疗方案推荐" style="ellipse;whiteSpace=wrap;html=1;" parent="1" vertex="1">
                    <mxGeometry x="200" y="300" width="140" height="70" as="geometry"/>
                </mxCell>
                <mxCell id="uc3_1" value="查看检查结果方案" style="ellipse;whiteSpace=wrap;html=1;" parent="1" vertex="1">
                    <mxGeometry x="400" y="300" width="140" height="70" as="geometry"/>
                </mxCell>
                <mxCell id="uc4" value="知识库查询" style="ellipse;whiteSpace=wrap;html=1;" parent="1" vertex="1">
                    <mxGeometry x="200" y="400" width="140" height="70" as="geometry"/>
                </mxCell>
                <mxCell id="uc4_1" value="查看知识详情" style="ellipse;whiteSpace=wrap;html=1;" parent="1" vertex="1">
                    <mxGeometry x="400" y="400" width="140" height="70" as="geometry"/>
                </mxCell>
                <mxCell id="uc5" value="相似病历查询" style="ellipse;whiteSpace=wrap;html=1;" parent="1" vertex="1">
                    <mxGeometry x="200" y="500" width="140" height="70" as="geometry"/>
                </mxCell>
                <mxCell id="uc5_1" value="查看病历详情" style="ellipse;whiteSpace=wrap;html=1;" parent="1" vertex="1">
                    <mxGeometry x="400" y="500" width="140" height="70" as="geometry"/>
                </mxCell>
                <mxCell id="edge1" value="" style="endArrow=none;html=1;rounded=0;entryX=0;entryY=0.5;entryDx=0;entryDy=0;" parent="1" source="actor1" target="uc1" edge="1">
                    <mxGeometry width="50" height="50" relative="1" as="geometry"/>
                </mxCell>
                <mxCell id="edge2" value="" style="endArrow=none;html=1;rounded=0;entryX=0;entryY=0.5;entryDx=0;entryDy=0;" parent="1" source="actor1" target="uc2" edge="1">
                    <mxGeometry width="50" height="50" relative="1" as="geometry"/>
                </mxCell>
                <mxCell id="edge3" value="" style="endArrow=none;html=1;rounded=0;entryX=0;entryY=0.5;entryDx=0;entryDy=0;" parent="1" source="actor1" target="uc3" edge="1">
                    <mxGeometry width="50" height="50" relative="1" as="geometry"/>
                </mxCell>
                <mxCell id="edge4" value="" style="endArrow=none;html=1;rounded=0;entryX=0;entryY=0.5;entryDx=0;entryDy=0;" parent="1" source="actor1" target="uc4" edge="1">
                    <mxGeometry width="50" height="50" relative="1" as="geometry"/>
                </mxCell>
                <mxCell id="edge5" value="" style="endArrow=none;html=1;rounded=0;entryX=0;entryY=0.5;entryDx=0;entryDy=0;" parent="1" source="actor1" target="uc5" edge="1">
                    <mxGeometry width="50" height="50" relative="1" as="geometry"/>
                </mxCell>
                <mxCell id="edge6" value="" style="endArrow=none;html=1;rounded=0;entryX=0;entryY=0.5;entryDx=0;entryDy=0;" parent="1" source="actor2" target="uc4" edge="1">
                    <mxGeometry width="50" height="50" relative="1" as="geometry"/>
                </mxCell>
                <mxCell id="edge7" value="" style="endArrow=none;html=1;rounded=0;entryX=0;entryY=0.5;entryDx=0;entryDy=0;" parent="1" source="actor2" target="uc5" edge="1">
                    <mxGeometry width="50" height="50" relative="1" as="geometry"/>
                </mxCell>
                <mxCell id="include1" value="&lt;&lt;include&gt;&gt;" style="endArrow=open;endSize=12;dashed=1;html=1;rounded=0;exitX=1;exitY=0.5;exitDx=0;exitDy=0;entryX=0;entryY=0.5;entryDx=0;entryDy=0;" parent="1" source="uc1" target="uc1_1" edge="1">
                    <mxGeometry width="160" relative="1" as="geometry"/>
                </mxCell>
                <mxCell id="include2" value="&lt;&lt;include&gt;&gt;" style="endArrow=open;endSize=12;dashed=1;html=1;rounded=0;exitX=1;exitY=0.5;exitDx=0;exitDy=0;entryX=0;entryY=0.5;entryDx=0;entryDy=0;" parent="1" source="uc2" target="uc2_1" edge="1">
                    <mxGeometry width="160" relative="1" as="geometry"/>
                </mxCell>
                <mxCell id="include3" value="&lt;&lt;include&gt;&gt;" style="endArrow=open;endSize=12;dashed=1;html=1;rounded=0;exitX=1;exitY=0.5;exitDx=0;exitDy=0;entryX=0;entryY=0.5;entryDx=0;entryDy=0;" parent="1" source="uc3" target="uc3_1" edge="1">
                    <mxGeometry width="160" relative="1" as="geometry"/>
                </mxCell>
                <mxCell id="include4" value="&lt;&lt;include&gt;&gt;" style="endArrow=open;endSize=12;dashed=1;html=1;rounded=0;exitX=1;exitY=0.5;exitDx=0;exitDy=0;entryX=0;entryY=0.5;entryDx=0;entryDy=0;" parent="1" source="uc4" target="uc4_1" edge="1">
                    <mxGeometry width="160" relative="1" as="geometry"/>
                </mxCell>
                <mxCell id="include5" value="&lt;&lt;include&gt;&gt;" style="endArrow=open;endSize=12;dashed=1;html=1;rounded=0;exitX=1;exitY=0.5;exitDx=0;exitDy=0;entryX=0;entryY=0.5;entryDx=0;entryDy=0;" parent="1" source="uc5" target="uc5_1" edge="1">
                    <mxGeometry width="160" relative="1" as="geometry"/>
                </mxCell>
            </root>
        </mxGraphModel>
    </diagram>
</mxfile>